HIERARCHY
ROOT Hips
{
	OFFSET -14.64140 90.27770 -84.91600
	CHANNELS 6 Xposition Yposition Zposition Zrotation Xrotation Yrotation
	JOINT Spine
	{
		OFFSET 0.00000 13.20850 -1.60436
		CHANNELS 3 Zrotation Xrotation Yrotation
		JOINT Spine1
		{
			OFFSET 0.00000 8.61716 0.00000
			CHANNELS 3 Zrotation Xrotation Yrotation
			JOINT Spine2
			{
				OFFSET 0.00000 8.61717 0.00000
				CHANNELS 3 Zrotation Xrotation Yrotation
				JOINT Spine3
				{
					OFFSET 0.00000 8.61717 0.00000
					CHANNELS 3 Zrotation Xrotation Yrotation
					JOINT Neck
					{
						OFFSET 0.00000 11.07920 1.10792
						CHANNELS 3 Zrotation Xrotation Yrotation
						JOINT Neck1
						{
							OFFSET 0.00000 7.08032 0.00000
							CHANNELS 3 Zrotation Xrotation Yrotation
							JOINT Head
							{
								OFFSET 0.00000 7.08031 0.00000
								CHANNELS 3 Zrotation Xrotation Yrotation
								End site
								{
									OFFSET 0.00000 0.00000 0.00000
								}
							}
						}
					}
					JOINT RightShoulder
					{
						OFFSET -0.01000 7.91373 5.19711
						CHANNELS 3 Zrotation Xrotation Yrotation
						JOINT RightArm
						{
							OFFSET -18.41580 0.00000 0.00000
							CHANNELS 3 Zrotation Xrotation Yrotation
							JOINT RightForeArm
							{
								OFFSET -29.11090 0.00000 0.00000
								CHANNELS 3 Zrotation Xrotation Yrotation
								JOINT RightHand
								{
									OFFSET -24.65040 0.00000 0.00000
									CHANNELS 3 Zrotation Xrotation Yrotation
									JOINT RightHandThumb1
									{
										OFFSET -5.35114 -0.85590 3.97906
										CHANNELS 3 Zrotation Xrotation Yrotation
										JOINT RightHandThumb2
										{
											OFFSET -4.52789 0.00000 0.00000
											CHANNELS 3 Zrotation Xrotation Yrotation
											JOINT RightHandThumb3
											{
												OFFSET -2.46976 0.00000 0.00000
												CHANNELS 3 Zrotation Xrotation Yrotation
												End site
												{
													OFFSET 0.00000 0.00000 0.00000
												}
											}
										}
									}
									JOINT RightHandIndex1
									{
										OFFSET -14.26970 0.00000 2.88139
										CHANNELS 3 Zrotation Xrotation Yrotation
										JOINT RightHandIndex2
										{
											OFFSET -5.48836 0.00000 0.00000
											CHANNELS 3 Zrotation Xrotation Yrotation
											JOINT RightHandIndex3
											{
												OFFSET -3.01859 0.00000 0.00000
												CHANNELS 3 Zrotation Xrotation Yrotation
												End site
												{
													OFFSET 0.00000 0.00000 0.00000
												}
											}
										}
									}
									JOINT RightHandMiddle1
									{
										OFFSET -14.26970 0.00000 -0.09147
										CHANNELS 3 Zrotation Xrotation Yrotation
										JOINT RightHandMiddle2
										{
											OFFSET -6.17441 0.00000 0.00000
											CHANNELS 3 Zrotation Xrotation Yrotation
											JOINT RightHandMiddle3
											{
												OFFSET -3.56743 0.00000 0.00000
												CHANNELS 3 Zrotation Xrotation Yrotation
												End site
												{
													OFFSET 0.00000 0.00000 0.00000
												}
											}
										}
									}
									JOINT RightHandRing1
									{
										OFFSET -12.69180 0.00000 -3.06433
										CHANNELS 3 Zrotation Xrotation Yrotation
										JOINT RightHandRing2
										{
											OFFSET -5.62556 0.00000 0.00000
											CHANNELS 3 Zrotation Xrotation Yrotation
											JOINT RightHandRing3
											{
												OFFSET -3.56744 0.00000 0.00000
												CHANNELS 3 Zrotation Xrotation Yrotation
												End site
												{
													OFFSET 0.00000 0.00000 0.00000
												}
											}
										}
									}
									JOINT RightHandPinky1
									{
										OFFSET -11.11390 0.00000 -6.03719
										CHANNELS 3 Zrotation Xrotation Yrotation
										JOINT RightHandPinky2
										{
											OFFSET -4.52789 0.00000 0.00000
											CHANNELS 3 Zrotation Xrotation Yrotation
											JOINT RightHandPinky3
											{
												OFFSET -2.46976 0.00000 0.00000
												CHANNELS 3 Zrotation Xrotation Yrotation
												End site
												{
													OFFSET 0.00000 0.00000 0.00000
												}
											}
										}
									}
								}
							}
						}
					}
					JOINT LeftShoulder
					{
						OFFSET 0.01000 7.91373 5.19711
						CHANNELS 3 Zrotation Xrotation Yrotation
						JOINT LeftArm
						{
							OFFSET 18.41580 0.00000 0.00000
							CHANNELS 3 Zrotation Xrotation Yrotation
							JOINT LeftForeArm
							{
								OFFSET 29.11090 0.00000 0.00000
								CHANNELS 3 Zrotation Xrotation Yrotation
								JOINT LeftHand
								{
									OFFSET 24.65040 0.00000 0.00000
									CHANNELS 3 Zrotation Xrotation Yrotation
									JOINT LeftHandThumb1
									{
										OFFSET 5.35114 -0.85590 3.97906
										CHANNELS 3 Zrotation Xrotation Yrotation
										JOINT LeftHandThumb2
										{
											OFFSET 4.52789 0.00000 0.00000
											CHANNELS 3 Zrotation Xrotation Yrotation
											JOINT LeftHandThumb3
											{
												OFFSET 2.46977 0.00000 0.00000
												CHANNELS 3 Zrotation Xrotation Yrotation
												End site
												{
													OFFSET 0.00000 0.00000 0.00000
												}
											}
										}
									}
									JOINT LeftHandIndex1
									{
										OFFSET 14.26970 0.00000 2.88139
										CHANNELS 3 Zrotation Xrotation Yrotation
										JOINT LeftHandIndex2
										{
											OFFSET 5.48836 0.00000 0.00000
											CHANNELS 3 Zrotation Xrotation Yrotation
											JOINT LeftHandIndex3
											{
												OFFSET 3.01859 0.00000 0.00000
												CHANNELS 3 Zrotation Xrotation Yrotation
												End site
												{
													OFFSET 0.00000 0.00000 0.00000
												}
											}
										}
									}
									JOINT LeftHandMiddle1
									{
										OFFSET 14.26970 0.00000 -0.09147
										CHANNELS 3 Zrotation Xrotation Yrotation
										JOINT LeftHandMiddle2
										{
											OFFSET 6.17440 0.00000 0.00000
											CHANNELS 3 Zrotation Xrotation Yrotation
											JOINT LeftHandMiddle3
											{
												OFFSET 3.56744 0.00000 0.00000
												CHANNELS 3 Zrotation Xrotation Yrotation
												End site
												{
													OFFSET 0.00000 0.00000 0.00000
												}
											}
										}
									}
									JOINT LeftHandRing1
									{
										OFFSET 12.69180 0.00000 -3.06433
										CHANNELS 3 Zrotation Xrotation Yrotation
										JOINT LeftHandRing2
										{
											OFFSET 5.62556 0.00000 0.00000
											CHANNELS 3 Zrotation Xrotation Yrotation
											JOINT LeftHandRing3
											{
												OFFSET 3.56744 0.00000 0.00000
												CHANNELS 3 Zrotation Xrotation Yrotation
												End site
												{
													OFFSET 0.00000 0.00000 0.00000
												}
											}
										}
									}
									JOINT LeftHandPinky1
									{
										OFFSET 11.11390 0.00000 -6.03719
										CHANNELS 3 Zrotation Xrotation Yrotation
										JOINT LeftHandPinky2
										{
											OFFSET 4.52789 0.00000 0.00000
											CHANNELS 3 Zrotation Xrotation Yrotation
											JOINT LeftHandPinky3
											{
												OFFSET 2.46976 0.00000 0.00000
												CHANNELS 3 Zrotation Xrotation Yrotation
												End site
												{
													OFFSET 0.00000 0.00000 0.00000
												}
											}
										}
									}
								}
							}
						}
					}
					JOINT pCube4
					{
						OFFSET 0.00000 10.91090 1.10792
						CHANNELS 3 Zrotation Xrotation Yrotation
						End site
						{
							OFFSET 0.00000 0.00000 0.00000
						}
					}
				}
			}
		}
	}
	JOINT RightUpLeg
	{
		OFFSET -9.98441 0.00000 0.00000
		CHANNELS 3 Zrotation Xrotation Yrotation
		JOINT RightLeg
		{
			OFFSET 0.00000 -42.11790 0.00000
			CHANNELS 3 Zrotation Xrotation Yrotation
			JOINT RightFoot
			{
				OFFSET 0.00000 -45.00020 -0.00001
				CHANNELS 3 Zrotation Xrotation Yrotation
				JOINT RightForeFoot
				{
					OFFSET 0.00000 -3.74820 0.00000
					CHANNELS 3 Zrotation Xrotation Yrotation
					JOINT RightToeBase
					{
						OFFSET 0.00000 0.06325 14.43120
						CHANNELS 3 Zrotation Xrotation Yrotation
						End site
						{
							OFFSET 0.00000 0.00000 0.00000
						}
					}
				}
			}
		}
	}
	JOINT LeftUpLeg
	{
		OFFSET 9.98441 0.00000 0.00000
		CHANNELS 3 Zrotation Xrotation Yrotation
		JOINT LeftLeg
		{
			OFFSET 0.00000 -42.11800 0.00000
			CHANNELS 3 Zrotation Xrotation Yrotation
			JOINT LeftFoot
			{
				OFFSET 0.00000 -45.00070 0.00000
				CHANNELS 3 Zrotation Xrotation Yrotation
				JOINT LeftForeFoot
				{
					OFFSET 0.00000 -3.74824 0.00000
					CHANNELS 3 Zrotation Xrotation Yrotation
					JOINT LeftToeBase
					{
						OFFSET 0.00000 0.06325 14.43110
						CHANNELS 3 Zrotation Xrotation Yrotation
						End site
						{
							OFFSET 0.00000 0.00000 0.00000
						}
					}
				}
			}
		}
	}
}
MOTION
Frames: 4
Frame Time: 0.050000
0.009444872424058151 -0.04400278014690737 -0.029298210882298 0.0241118028089816 -0.003354754191531743 -0.014978819573710781 1.3874439825768439 4.030570719149045 -1.5014351823543783 -0.5765235820488985 4.068212636381338 0.32860980537775564 -0.5859473495530659 -1.3611618758023547 0.6387568293565623 -1.3362295331517922 -0.686857509984031 -0.3531193216351869 -1.2089816655440393 12.851618578261554 1.3339017312319517 0.2977280753077381 -2.0606843434058053 3.2401338137110494 0.22027520427932637 -19.127045053919275 0.17584729769672042 -4.900089742253349 2.0161389729950163 -16.33939306365349 78.83338288229898 9.481780533462079 -1.66010723065247 0.5423609626582349 3.1733675814170117 52.803512642230416 25.497393818687225 -0.29204028258662085 -2.7022872527181434 4.529918317970606 -0.15667117784293924 -1.5495184537125866 0.013802862149353334 0.04455261199092196 -56.234065956312435 -0.04709995402050898 0.03323182010487093 -56.21710489958703 -38.74303010965054 0.03662450140732436 0.003661767971447977 -0.022940960874446168 0.025283656537536236 0.023029921420393295 0.030681203052644334 -0.018782215470225877 0.037483826127601864 -36.733880821740364 -0.029065957930758536 0.025657813652057777 0.004244397357585627 0.043068225570436006 0.018098563598681013 -0.004723229360186805 0.019362834476371635 -0.02615749808481936 -19.77669246284525 0.013740086854250256 0.015983534723252073 0.006799469235577306 0.029715942144709583 -0.04750956464396803 -0.03312827050044555 -0.0012645784935383876 0.016512208322991984 24.081816271146625 0.0065292465440604875 -0.03812815521873243 28.85220923361202 -0.03352293314822919 0.03344723592101531 28.878514938695982 0.024037864608084842 -0.03175083034851395 8.164133204368248 2.0065342467561567 14.971866667902514 -78.4845981381966 16.325004234389834 -12.026233238872036 -1.305258701875007 12.079681138991239 -48.220862393274075 -27.271197255301903 8.345420973584394 -3.9313212756587297 -0.5127362535691018 0.05999965429544692 -8.120206176760451 -0.021291601946229234 0.005896105255757225 44.5824498269866 0.0028734442403226196 0.009979990944679044 44.569673280321666 12.477472408582459 -0.0407575044608752 -0.0283347043582265 -0.02811580220427173 -0.012749069580926812 -0.018033743501937087 -0.043073632120520976 0.04979597989967161 -0.019299095525834097 11.12385451501174 0.004931149272285074 -0.010191592771784927 -0.009319143909597233 0.004090568175220346 0.005792488116908671 -0.034671991929383694 -0.012528954739093807 0.025615125597246265 4.778372221205406 -0.014453300383470391 0.005907213596014153 0.011710522382173943 -0.009961572316650978 -0.0008189973092366682 0.03850384102272195 0.0010726692251623818 0.03422921661793694 -5.5508892340336855 -0.0033489674247601455 -0.04401595672198937 -6.695047648052557 -0.040404255029027746 0.02947969921014645 -6.738888542974226 -0.009737681953770162 0.029617078340088292 -0.004378352497677214 -0.045143718749143594 -0.034972214075472484 8.062245621587698 3.4635797098630965 -19.17767742522295 -0.0019144258284659412 10.349987459601394 0.015412827074546585 -5.598983076124039 -15.68874927508238 3.2051127117212492 -0.02055789225181633 -0.004625287675881558 0.04148725192538716 -0.0456502506936614 4.675217628600506 0.017846104296971352 12.480155270038049 -8.192653030623902 6.9076737381409785 0.022947644801886755 46.35540459129793 0.044665700071826395 -4.355225928733106 -14.766376071920542 -3.8401348661289125 0.00022509523967417818 -0.009271818473822958 -0.031342741897686766 0.028107426490462013 -10.738937062541996 -0.03730451516094304 
0.022748237639934395 0.006932339795720584 0.017965210329623962 0.005352721423069161 0.012699393803664472 0.025904546748842808 0.942214948949531 4.005248309451983 -1.461222701286628 -0.49018177755722603 4.067586269311225 0.2737732184639989 -0.5515131185589248 -1.4271691611413297 0.7603519928824234 -1.380025105181979 -0.7348867122147485 -0.2682907427309112 -1.1128182875911738 12.882944954844373 1.248879268672225 0.3562690693968787 -2.1792491182459255 2.969365541397501 0.27001478190961703 -19.27308565869926 0.14949216875224172 -4.622231894064077 2.025029425698292 -16.291219065106603 78.58024397289081 9.567419249441242 -1.6681357651759054 -0.5489065866402373 3.1901582845912673 54.19393958740625 26.448553664361338 -0.348941862565467 -2.815575715407288 4.523100518850863 -0.16100530204332456 -1.63632239331392 -0.03271140683923812 0.014592421509287126 -56.27070032809545 0.028825989711289697 0.009385149057586388 -56.19598253217692 -38.75655794008294 0.022558543318761667 0.03476757310368401 0.016259845554182865 0.008686901166151041 -0.03339789280367314 -0.012834124592264656 0.0407508659687733 -0.03322252497939182 -36.709450683252626 -0.029212736227186453 -0.03538825055232612 -0.03405902342747288 -0.02115143585017814 0.03200077731721521 -0.037693481361364155 -0.019477476581095898 -0.04235995402357834 -19.726215584996673 -0.019980645958486976 0.020260765583808068 0.04586467500691659 -0.01491377733715376 -0.04059994913458442 0.041060802627774014 0.012535633068997852 0.032482456938575856 24.052878367103286 -0.00798858615644838 0.008327855945232505 28.849229423999073 0.03277720215952057 0.020814028266652296 28.855623611555306 0.010957303428606608 0.046763032105540225 7.895972893383295 2.0136480377388004 15.095310388366096 -78.76009203618358 15.858757908901438 -11.284854591274947 -0.37228997222364446 12.12512208053213 -47.129981992608755 -28.219828646181373 9.230117853134033 -4.541622854189744 -0.501780841476898 0.06455437395216636 -8.074970093899708 0.01568404713308707 -0.014640530574191842 44.579580799877604 0.0313455407854049 -0.049109900134013444 44.52693615976526 12.449879362559635 0.012570689816113123 -0.0027294820937647556 -0.010449218867634055 -0.03335106044907744 0.04023906641106742 0.03220817539201143 0.03635449113560815 0.01192038567034048 11.154597033352012 -0.008351459514072712 -0.03818792470699635 0.035656356212696874 -0.046176493405163874 -0.00028586134669833876 0.02756793202254463 -0.004368376650203258 -0.02793804261645847 4.815388991065199 -0.012640363670470322 0.030819585132728613 -0.025546546051911326 -0.04543628043707096 0.023421123515740425 -0.016522871494072288 -0.03247821525116287 0.022105693521808824 -5.574954822082233 0.039321341192142104 -0.028312380347203115 -6.719399119066202 0.00018405400422820005 -0.0017446881158568735 -6.716134905506409 -0.01608050611650578 0.03012340916920324 -0.03711961355189771 -0.0015234362151802722 -0.012600137485672987 8.079190208435094 3.535163008432359 -19.174799342894282 0.031174366235305166 10.423849689650552 0.009797542362256106 -5.5962827476754615 -15.674979417274505 3.1824098988484724 0.03519612063133955 0.023254219131955956 -0.0212720932350518 0.019906311003358976 4.6578479964828015 0.01169479747986277 12.463906379999807 -8.278390180293393 6.898995659185232 0.018535590416347485 46.36181444284997 -0.03129858885170203 -4.343306032895871 -14.76200262870348 -3.7982406120586805 -0.027693464430282932 -0.024778518740894755 -0.025981753796196973 0.005508267109592931 -10.788984968359863 -0.03294980962544209 
-0.008871887031806773 -0.04493144360991123 -0.04883618321577021 -0.004211961303595757 0.04630403559027574 -0.021021710125222266 0.5408094766747524 4.044973003067096 -1.4681023646811435 -0.5556933616254034 4.126814036387133 0.34082630329965324 -0.5757714935179326 -1.4358081054716818 0.8107286539703147 -1.4521971486708378 -0.7665966371665415 -0.30110751504165395 -1.1642927082278656 12.778522315377167 1.1948249270309965 0.3861069287535474 -2.3048860650149687 2.8391619860477766 0.3264109814165983 -19.52176502638506 0.12080796971503996 -4.406014254171084 1.8681863681015174 -16.200313335446545 78.3518381974362 9.793778263352245 -1.7071318042583823 -1.541489689659181 2.9419527539348143 55.69036995307772 27.12550455469905 -0.3417922873811335 -3.068764540147362 4.545829139046754 -0.1326906192210777 -1.602016893759905 0.013035090496541238 -0.013919107740541675 -56.2078005665618 0.009124167209235985 -0.0013320289483848009 -56.25298437495528 -38.78397356457914 -0.0286803719927763 -0.007803600905093838 0.003628800164972018 -0.03918601684172 -0.044226963201703155 0.006293505217363974 -0.029861380507027416 -0.0029431054346404644 -36.70267248930095 -0.019695748907846655 -0.01352032879352354 0.02394432894240272 0.030853398960982367 0.02998776375706169 0.0395447132223839 0.023582963520375286 0.010261300478334604 -19.716678356347778 0.00647009874270345 0.00012285783997666776 -0.029131452804841848 -0.04380336631713646 -0.04711223817209892 0.015995785117660834 -0.01752520429291951 0.047338710381374806 24.064293445502138 0.01502988206181975 -0.006542182862839895 28.85617374643021 0.03181401753135306 -0.028102872122275635 28.83297019246378 0.04601010273075365 0.019499514335278998 7.682684325124785 1.936470761106282 15.088232067756275 -78.8853867524878 16.03456588698508 -10.643931462783868 -0.10998290503957908 11.32247968855429 -46.531612248866956 -28.90413729207841 9.652838135863716 -4.938304447597668 -0.4545972349401106 0.03794455641324514 -8.147681658429862 0.03479940822004797 -0.02110220753588931 44.52026940261896 0.04289051765558861 -0.010806339971303439 44.55276933331288 12.437107010752197 0.015236310553498649 0.016481172288031243 -0.027845945053711095 -0.04208836911278726 0.023863064005426735 0.032864706465520574 0.030655422230651666 0.007365404636162943 11.10556646844147 0.03244069728702648 -0.0066362677992461965 -0.01470416906449153 0.01746901652532944 -0.03593213411033589 0.033710354326908026 0.046041237481431595 0.014701491029688004 4.744782668736225 0.00010249654849307752 -0.03720145800192647 0.03589321450656729 0.023158988918482278 0.02386838118100438 -0.0021391527374784087 -0.0455610566676287 -0.04252718603482891 -5.5829726661228625 0.025465115866853148 0.03302039183393325 -6.694873139475789 -0.02779662575733566 -0.03274500339124272 -6.689370372859713 -0.010982043062885185 0.0403157959715538 0.015226603711769064 0.03934749369286231 0.022802759367572676 8.05518369684834 3.51526489613147 -19.238041008794532 -0.04478211686257675 10.426223015002558 0.050197780666817154 -5.590171528755079 -15.700716564639949 3.230997016273015 -0.02144480654509225 0.017556609472897982 -0.006424560037558939 -0.04101493609826043 4.695238372460877 0.01429610808243901 12.424505868788092 -8.214750045639315 6.863570310137304 -0.012433493554924143 46.38205081343811 -0.0075709411624148275 -4.310598903142179 -14.786610823941633 -3.802979040573106 0.0023040041836586375 -0.04146979746827685 -0.009683814089778375 -0.009070478959952121 -10.709947942868487 0.0021438316823000608 
-0.02280611147203213 0.0034944588412801933 0.019047597147325457 -0.02703504982460834 -0.020103645494022843 -0.028644074201950132 -0.016581822554491924 4.099191253087157 -1.3527170453126354 -0.5289527989283282 4.141080366104761 0.3571636100926268 -0.6235596982567768 -1.4631067245861273 0.8309843442296139 -1.5810412954223674 -0.7600710255602076 -0.28917033734450187 -1.1110212553406913 12.706971627137507 1.2880320861019083 0.4021380515711986 -2.4638595149152573 2.8951669282169434 0.3204773583400986 -19.637425073312677 0.17677577075447215 -3.9287690706395257 1.8037395628172026 -16.163838825468503 78.06349511362389 9.62681893417448 -1.8900177548822825 -2.247497238973886 3.627177549470401 55.875727044299346 27.83546940918283 -0.3291207793195472 -2.897320808169561 4.485667541075448 -0.1323617408487253 -1.5582228617792184 -0.023496642519440426 0.003452975005420731 -56.23824602674283 -0.019754078658986644 -0.00954284378674954 -56.22908549648712 -38.74139824409179 0.04372809148427244 -0.014703869172145142 -0.00664675854791235 0.010315760180231892 -0.019041360707911032 -0.008587589620310492 0.03372053703802785 -0.03802658286917293 -36.74168923614524 -0.025936649381918794 0.0019723317771946367 -0.006816531736870726 -0.027948981703670217 -0.030264774685189108 0.04852156677478007 -0.02760339943559927 -0.01885311422572026 -19.74545788182513 -0.026552624278917136 0.0060707043920862624 0.034897071970031814 -0.027525102912189844 -0.0024108872305505383 0.030161282731254308 -0.0061519067635293165 0.0044827793477016835 24.078431172963818 0.026582185527136374 -0.038362198902256624 28.874978994311626 -0.0007239445794814149 0.008023743734445345 28.875317228801816 0.010050592050829466 0.005045356034055267 7.1267398845883605 1.8567421928955063 15.040643520841575 -79.08130937075329 15.742772644276442 -9.843634559072102 0.9310630915198154 11.402352437655624 -45.16600126971507 -29.55278670041822 10.885319667426737 -5.881053384631388 -0.5158163441881578 0.07504328880976789 -8.098643476641318 -0.0395495117830065 0.034697903716206895 44.55531214043223 0.022395338377143238 -0.02774859402948167 44.60328009391832 12.459588641167821 0.019005599451093105 -0.030841755116228872 -0.007224119664662417 -0.018202231766333034 -0.01046173630238991 0.03961680899446417 -0.03571991342258461 -0.041141772146824546 11.127373590000728 -0.025412853181543932 0.02724351441529183 0.028479407575587496 0.02279344658168777 -0.0309237038433101 -0.007750308444119289 -0.007946000250261367 -0.02201076435207053 4.763769998802762 0.02001080474964227 -0.008680632605759415 -0.019294760138585897 0.02500180681008797 -0.029679935547049768 -0.002821371124375747 -0.003108470331555789 0.014042263745541721 -5.629429687143763 0.009571846177208904 -0.03644629071484183 -6.709871301729247 0.01765109223620438 0.04292318001762449 -6.706252556586431 -0.03379418567284652 0.0046735307669434605 0.006886208372938318 -0.04610105871757363 0.022810641651416847 8.071860228250863 3.538425931292426 -19.259677412949106 0.0220073100479776 10.376634192914008 0.04546485723814164 -5.59487753687146 -15.707799014149556 3.219110465696947 -0.03415714117372218 -0.01732143823499916 0.021266217254998554 -0.029579795039783068 4.7297868673434085 0.04941278649722437 12.473530198536425 -8.200202188401283 6.917252908182192 -0.03490658050156845 46.42817890773626 -0.045178838079742836 -4.349013920771792 -14.749670535572015 -3.8441767768297024 0.013860456121603554 -0.028891802936784096 -0.001967633752580583 -0.0186346561175719 -10.729389184682827 0.04939681591243811 
